<svg version="1.1" width="116" height="30" xmlns="http://www.w3.org/2000/svg" xmlns:xlink="http://www.w3.org/1999/xlink" x="0px" y="0px"
	 viewBox="0 0 116 30" style="enable-background:new 0 0 116 30;" xml:space="preserve">
<style type="text/css">
	.mmit-svg-path{fill:#B5B5B5;}
</style>
<path class="mmit-svg-path" d="M7.5,14.7c0-1.4-0.2-2.4-0.5-3c-0.3-0.6-1-0.9-1.9-0.9c-0.3,0-0.7,0-1.1,0.1S3.2,11,3.1,11v10.6h-3V8.9
	c0.6-0.2,1.3-0.3,2.3-0.4c1-0.2,1.9-0.3,3-0.3c0.9,0,1.7,0.1,2.2,0.3c0.6,0.3,1,0.5,1.4,1c0.2-0.2,0.4-0.3,0.7-0.4s0.6-0.3,1-0.4
	c0.3-0.1,0.7-0.3,1.1-0.3c0.3-0.1,0.8-0.1,1.2-0.1c1,0,1.8,0.2,2.5,0.4c0.7,0.3,1.1,0.7,1.6,1.2c0.3,0.5,0.6,1.1,0.8,1.9
	c0.2,0.7,0.2,1.6,0.2,2.4v7.3H15v-6.9c0-1.4-0.2-2.4-0.5-3c-0.3-0.6-1-0.9-1.9-0.9c-0.5,0-1,0.1-1.4,0.3c-0.4,0.2-0.8,0.3-1,0.4
	c0.2,0.4,0.3,0.9,0.3,1.3c0.2,0.4,0.2,1,0.2,1.5v7.3H7.5C7.5,21.6,7.5,14.7,7.5,14.7z"/>
<path class="mmit-svg-path" d="M18.8,15.1c0-1.1,0.2-2.2,0.5-3.1c0.3-0.9,0.8-1.6,1.4-2.2c0.5-0.6,1.2-1,1.9-1.3c0.7-0.3,1.5-0.4,2.3-0.4
	c1.8,0,3.2,0.5,4.2,1.7c1,1.1,1.5,2.8,1.5,5c0,0.2,0,0.3,0,0.5s0,0.4,0,0.5H22c0.1,1,0.4,1.8,1.1,2.4c0.7,0.6,1.6,0.9,2.9,0.9
	c0.7,0,1.4-0.1,2-0.2c0.6-0.2,1-0.3,1.4-0.4l0.4,2.4c-0.2,0.1-0.4,0.2-0.7,0.3c-0.3,0.1-0.6,0.2-1,0.3c-0.3,0.1-0.8,0.2-1.2,0.2
	c-0.4,0.1-0.9,0.1-1.3,0.1c-1.1,0-2.2-0.2-3-0.5c-0.9-0.3-1.6-0.8-2.1-1.4c-0.5-0.6-1-1.3-1.2-2.2C18.9,16.9,18.8,16.1,18.8,15.1z
	 M27.6,13.7c0-0.4-0.1-0.8-0.2-1.2c-0.1-0.3-0.3-0.7-0.5-1c-0.3-0.3-0.5-0.5-0.8-0.6c-0.3-0.2-0.7-0.3-1.1-0.3s-0.9,0.1-1.2,0.3
	s-0.6,0.4-0.9,0.7c-0.3,0.3-0.4,0.6-0.5,1c-0.3,0.3-0.3,0.8-0.3,1.1C22,13.7,27.6,13.7,27.6,13.7z"/>
<path class="mmit-svg-path" d="M42.6,20.3c0,2.1-0.5,3.6-1.6,4.5c-1,1-2.7,1.5-4.9,1.5c-0.8,0-1.6-0.1-2.4-0.2c-0.8-0.2-1.5-0.3-2.1-0.5
	l0.5-2.5c0.5,0.2,1.1,0.3,1.7,0.5c0.7,0.2,1.4,0.2,2.1,0.2c1.2,0,2.1-0.3,2.6-0.8c0.5-0.5,0.8-1.2,0.8-2.2v-0.5
	c-0.3,0.2-0.7,0.3-1.2,0.4c-0.5,0.2-1,0.3-1.7,0.3c-0.9,0-1.6-0.2-2.3-0.4c-0.7-0.3-1.3-0.7-1.7-1.1c-0.5-0.5-0.9-1.1-1.1-1.9
	c-0.3-0.8-0.4-1.7-0.4-2.7c0-1,0.2-1.8,0.4-2.6c0.3-0.8,0.7-1.5,1.3-2c0.5-0.5,1.2-1,2-1.3c0.8-0.3,1.7-0.4,2.7-0.4s1.9,0.1,2.8,0.3
	c0.9,0.2,1.7,0.3,2.3,0.4L42.6,20.3C42.5,20.3,42.6,20.3,42.6,20.3z M34.2,14.7c0,1.3,0.3,2.2,0.9,2.8c0.5,0.6,1.3,0.9,2.2,0.9
	c0.5,0,1-0.1,1.4-0.2c0.4-0.2,0.8-0.3,1-0.4v-6.8c-0.2-0.1-0.5-0.1-0.8-0.2c-0.3,0-0.7-0.1-1.2-0.1c-1.1,0-1.9,0.3-2.5,1
	C34.5,12.6,34.2,13.4,34.2,14.7z"/>
<path class="mmit-svg-path" d="M48.6,8.1c1,0,1.8,0.1,2.5,0.3c0.7,0.3,1.2,0.6,1.7,1c0.4,0.4,0.7,1,0.9,1.7c0.2,0.6,0.3,1.3,0.3,2.1v8
	c-0.4,0.1-1.1,0.3-2.1,0.3c-1,0.2-2,0.2-3.2,0.2c-0.8,0-1.5-0.1-2.2-0.3c-0.6-0.2-1.2-0.3-1.7-0.7c-0.4-0.3-0.8-0.8-1-1.3
	c-0.3-0.5-0.3-1.2-0.3-2c0-0.8,0.2-1.4,0.4-1.9s0.7-1,1.2-1.2c0.5-0.3,1-0.5,1.7-0.7s1.3-0.2,2.1-0.2c0.3,0,0.7,0,1,0.1
	c0.3,0,0.8,0.1,1.1,0.2v-0.5c0-0.3,0-0.7-0.1-1c-0.1-0.3-0.3-0.6-0.4-0.9c-0.2-0.3-0.5-0.4-0.8-0.5c-0.3-0.2-0.8-0.2-1.3-0.2
	c-0.7,0-1.3,0.1-1.9,0.2s-1,0.2-1.4,0.3l-0.3-2.4c0.3-0.2,1-0.3,1.7-0.4C47,8.2,47.8,8.1,48.6,8.1z M48.8,19.4c1,0,1.7-0.1,2.1-0.2
	v-3.3c-0.2-0.1-0.4-0.1-0.7-0.2c-0.3-0.1-0.7-0.1-1-0.1c-0.3,0-0.7,0-1,0.1s-0.6,0.2-1,0.3c-0.3,0.2-0.5,0.3-0.7,0.5
	c-0.2,0.3-0.3,0.5-0.3,0.9c0,0.7,0.3,1.2,0.7,1.5C47.5,19.3,48.1,19.4,48.8,19.4z"/>
<g>
	<path class="mmit-svg-path" d="M63.1,14.7c0-1.4-0.2-2.4-0.5-3c-0.3-0.6-1-0.9-1.9-0.9c-0.3,0-0.7,0-1.1,0.1C59.1,11,58.8,11,58.6,11v10.6
		h-3.1V8.9c0.6-0.2,1.3-0.3,2.3-0.4c1-0.2,1.9-0.3,3-0.3c0.9,0,1.7,0.1,2.2,0.3c0.6,0.3,1,0.5,1.4,1c0.2-0.2,0.4-0.3,0.7-0.4
		c0.3-0.2,0.6-0.3,1-0.4c0.3-0.1,0.7-0.3,1.1-0.3c0.3-0.1,0.8-0.1,1.2-0.1c1,0,1.8,0.2,2.5,0.4c0.7,0.3,1.1,0.7,1.6,1.2
		c0.3,0.5,0.6,1.1,0.8,1.9c0.2,0.7,0.2,1.6,0.2,2.4v7.3h-3.1v-6.9c0-1.4-0.2-2.4-0.5-3c-0.3-0.6-1-0.9-1.9-0.9c-0.5,0-1,0.1-1.4,0.3
		c-0.4,0.2-0.8,0.3-1,0.4c0.1,0.4,0.3,0.9,0.3,1.3c0.1,0.4,0.1,1,0.1,1.5v7.3h-2.9L63.1,14.7L63.1,14.7z"/>
	<path class="mmit-svg-path" d="M78.4,5.1c0,0.5-0.2,1-0.5,1.3C77.5,6.8,77.1,7,76.6,7c-0.5,0-1-0.2-1.3-0.5c-0.3-0.3-0.5-0.8-0.5-1.3
		c0-0.6,0.2-1,0.5-1.4c0.3-0.3,0.8-0.5,1.3-0.5c0.5,0,1,0.2,1.3,0.5C78.2,4.1,78.4,4.5,78.4,5.1z"/>
	<rect x="75.1" y="8.5" class="mmit-svg-path" width="3.1" height="13.1"/>
	<path class="mmit-svg-path" d="M87,11.1c-0.3-0.1-0.3-0.1-0.8-0.2s-1-0.2-1.6-0.2c-0.3,0-0.7,0-1,0.1s-0.6,0.1-0.8,0.2v10.5h-3.1V9
		c0.6-0.2,1.3-0.4,2.2-0.6c0.9-0.2,1.8-0.3,2.9-0.3c0.2,0,0.4,0,0.7,0c0.3,0,0.5,0.1,0.8,0.1s0.5,0.1,0.8,0.2
		c0.3,0.1,0.4,0.1,0.6,0.2L87,11.1z"/>
</g>
<g>
	<path class="mmit-svg-path" d="M98.8,6.5c0-0.4-0.3-0.8-0.8-0.8c-0.4,0-0.8,0.3-0.8,0.8c0,0.4,0.3,0.8,0.8,0.8C98.4,7.3,98.8,7,98.8,6.5z"/>
	<path class="mmit-svg-path" d="M102,1c-7.7,0-14,6.3-14,14c0,4.6,2.3,8.8,5.9,11.4l3.8-3.7v-1.3V9.9V8.5l0,0c0-0.4-0.2-0.6-0.4-0.8
		c-0.4-0.3-0.7-0.7-0.7-1.2c0-0.8,0.7-1.5,1.5-1.5s1.5,0.7,1.5,1.5c0,0.5-0.3,1-0.7,1.2l0,0c-0.3,0.2-0.4,0.3-0.4,0.7v1.4v11.5V23
		l0,0l-3.8,3.8c2.2,1.4,4.8,2.3,7.6,2.3c7.7,0,14-6.3,14-14C116,7.3,109.8,1,102,1z M96.9,9.9v11.5h-0.7V9.9H96.9z M99.6,21.4H99
		V9.9h0.7L99.6,21.4L99.6,21.4z M108,21.4c-0.5,0.2-1.1,0.3-1.7,0.3c-0.8,0-1.4-0.1-1.9-0.3c-0.5-0.2-1-0.5-1.2-0.9
		c-0.3-0.4-0.5-0.9-0.6-1.5s-0.2-1.2-0.2-2V6.7l2.1-0.3v3.6h4.4v1.7h-4.4V17c0,0.6,0.1,1,0.2,1.4s0.3,0.7,0.4,0.9
		c0.2,0.2,0.4,0.3,0.7,0.4c0.3,0.1,0.6,0.2,1,0.2c0.6,0,1.1-0.1,1.5-0.2c0.3-0.2,0.6-0.3,0.8-0.3l0.4,1.7
		C108.9,21.1,108.6,21.2,108,21.4z"/>
</g>
</svg>
