<svg version="1.1" width="50" height="50" xmlns="http://www.w3.org/2000/svg" xmlns:xlink="http://www.w3.org/1999/xlink" x="0px" y="0px"
	 viewBox="0 0 49.8 49.8" style="enable-background:new 0 0 49.8 49.8;" xml:space="preserve">
<g>
	<g>
		<g>
			<path fill="#ffffff" d="M35.2,16.8L34.7,15c-0.7-2-2.8-3.1-4.8-2.4c-1.1,0.4-2,1.3-2.4,2.4L27,16.8c-0.4,1.5-0.5,3-0.3,4.6
				c0.2,1.3,1.1,2.4,2.2,3l-0.6,13.3c-0.1,0.7,0.2,1.5,0.7,2c1.1,1.2,2.9,1.3,4.1,0.2c0.1-0.1,0.1-0.1,0.2-0.2
				c0.5-0.5,0.7-1.3,0.7-2l-0.6-13.4c1.2-0.6,2-1.7,2.2-3C35.8,19.8,35.7,18.3,35.2,16.8z M33.9,21.1c-0.2,0.9-0.8,1.7-1.7,2
				c-0.3,0.1-0.6,0.5-0.5,0.8l0.6,14c0,0.3-0.1,0.5-0.2,0.8c-0.5,0.5-1.3,0.5-1.8,0c-0.2-0.2-0.3-0.5-0.2-0.8l0.6-14
				c0-0.4-0.2-0.7-0.5-0.8c-0.9-0.3-1.5-1.1-1.7-2c-0.2-1.3-0.1-2.6,0.2-3.8l0.5-1.8c0.4-1.1,1.6-1.7,2.8-1.3
				c0.6,0.2,1.1,0.7,1.3,1.3l0.5,1.8C34,18.5,34.1,19.8,33.9,21.1z"/>
		</g>
	</g>
	<g>
		<g>
			<path fill="#ffffff" d="M22.4,12.4c-0.5,0-0.8,0.4-0.8,0.8v7.1l-2.2,2.2c-0.2,0.2-0.3,0.4-0.2,0.6l0.7,14.5c0,0.3-0.1,0.6-0.3,0.8
				c-0.5,0.5-1.2,0.5-1.7,0c0,0,0,0,0,0c-0.2-0.2-0.3-0.5-0.3-0.8l0.7-14.5c0-0.2-0.1-0.5-0.2-0.6l-2.2-2.2v-7.1
				c0-0.5-0.4-0.8-0.8-0.8s-0.8,0.4-0.8,0.8v7.5c0,0.2,0.1,0.4,0.2,0.6l2.2,2.2l-0.7,14.2c-0.1,1.5,1.1,2.9,2.7,2.9s2.9-1.1,2.9-2.7
				c0-0.1,0-0.2,0-0.3l-0.7-14.2l2.2-2.2c0.2-0.2,0.2-0.4,0.2-0.6v-7.5C23.2,12.8,22.9,12.4,22.4,12.4z"/>
		</g>
	</g>
	<g>
		<g>
			<path fill="#ffffff" d="M17.4,12.4c-0.5,0-0.8,0.4-0.8,0.8v6.6c0,0.5,0.4,0.8,0.8,0.8s0.8-0.4,0.8-0.8v-6.6C18.3,12.8,17.9,12.4,17.4,12.4z"/>
		</g>
	</g>
	<g>
		<g>
			<path fill="#ffffff" d="M19.9,12.4c-0.5,0-0.8,0.4-0.8,0.8v6.6c0,0.5,0.4,0.8,0.8,0.8s0.8-0.4,0.8-0.8v-6.6C20.7,12.8,20.4,12.4,19.9,12.4z"/>
		</g>
	</g>
	<g>
		<g>
			<path fill="#ffffff" d="M24.9,0C11.1,0,0,11.1,0,24.9s11.1,24.9,24.9,24.9s24.9-11.1,24.9-24.9C49.8,11.1,38.6,0,24.9,0z M24.9,48.1
				c-12.8,0-23.2-10.4-23.2-23.2S12.1,1.7,24.9,1.7s23.2,10.4,23.2,23.2C48.1,37.7,37.7,48.1,24.9,48.1z"/>
		</g>
	</g>
	<g>
		<g>
			<path fill="#ffffff" d="M27.6,40.5c0-0.5-0.5-0.8-0.9-0.7c0,0,0,0,0,0l0,0c-1.2,0.1-2.3,0.1-3.5,0c-0.5-0.1-0.9,0.3-0.9,0.7
				c-0.1,0.5,0.3,0.9,0.7,0.9c1.3,0.2,2.6,0.2,3.9,0C27.3,41.3,27.6,40.9,27.6,40.5z"/>
		</g>
	</g>
	<g>
		<g>
			<path fill="#ffffff" d="M37.6,14.2c-0.3-0.4-0.8-0.4-1.2-0.1c0,0,0,0,0,0c-0.4,0.3-0.4,0.8-0.1,1.2c5,5.9,4.6,14.7-0.9,20.2
				c-0.3,0.3-0.3,0.8,0,1.2c0.3,0.3,0.8,0.3,1.2,0C42.7,30.6,43.1,20.8,37.6,14.2z"/>
		</g>
	</g>
	<g>
		<g>
			<g>
				<path fill="#ffffff" d="M19.3,11C19.3,11,19.3,11,19.3,11C19.3,11,19.3,11,19.3,11L19.3,11z"/>
				<path fill="#ffffff" d="M28.8,8.8C25.6,8,22.2,8.2,19,9.4c-0.4,0.2-0.6,0.6-0.5,1.1c0.1,0.3,0.4,0.5,0.8,0.5c0.1,0,0.2,0,0.3-0.1
					c2.8-1.1,5.9-1.2,8.8-0.5c0.4,0.1,0.9-0.2,1-0.6C29.5,9.3,29.2,8.9,28.8,8.8z"/>
			</g>
		</g>
	</g>
	<g>
		<g>
			<path fill="#ffffff" d="M14.3,35.4c-2.8-2.8-4.4-6.6-4.4-10.5c0-3.2,1-6.2,2.9-8.8c0.3-0.4,0.2-0.9-0.2-1.2c-0.4-0.3-0.9-0.2-1.2,0.2
				c0,0,0,0,0,0c-4.8,6.6-4.1,15.7,1.7,21.5c0.3,0.3,0.9,0.3,1.2,0C14.6,36.3,14.6,35.7,14.3,35.4z"/>
		</g>
	</g>
</g>
</svg>
