<svg width="55" height="50" version="1.1" xmlns="http://www.w3.org/2000/svg" xmlns:xlink="http://www.w3.org/1999/xlink" x="0px" y="0px"
	 viewBox="0 0 46.4 42.6" style="enable-background:new 0 0 46.4 42.6;" xml:space="preserve">
<path fill="#ffffff" d="M44.4,21.8h-1.6c-0.2-2.4-0.7-4.8-1.8-7c-0.2-0.3-0.6-0.5-0.9-0.3c-0.3,0.2-0.5,0.6-0.3,0.9c0.9,2,1.5,4.2,1.6,6.5H10.4
	c-0.4,0-0.7,0.3-0.7,0.7c0,0.4,0.3,0.7,0.7,0.7h34.1c0.3,0,0.6,0.3,0.6,0.6v0.8c0,0.3-0.3,0.6-0.6,0.6H2c-0.3,0-0.6-0.3-0.6-0.6
	v-0.8c0-0.3,0.3-0.6,0.6-0.6h5.2c0.4,0,0.7-0.3,0.7-0.7c0-0.4-0.3-0.7-0.7-0.7H4.9c0.3-4.5,2.2-8.7,5.5-11.9C13.6,6.8,17.6,5,22,4.8
	c0,0,0,0,0,0c0.2,0,0.4,0,0.5,0c0,0,0.1,0,0.1,0c0.1,0,0.1,0,0.2,0c0.1,0,0.2,0,0.4,0c0.2,0,0.3,0,0.5,0c0,0,0.1,0,0.1,0
	c0.1,0,0.2,0,0.4,0c0.1,0,0.1,0,0.2,0C30,5.1,35.1,8,38.3,12.7c0.2,0.3,0.6,0.4,0.9,0.2c0.3-0.2,0.4-0.6,0.2-0.9
	c-3.1-4.6-8-7.6-13.4-8.3c0.3-0.5,0.5-1.1,0.5-1.8c0-0.4-0.2-1-1.3-1.5C24.7,0.1,24,0,23.2,0c-0.8,0-1.5,0.1-2,0.3
	c-1.1,0.4-1.3,1.1-1.3,1.5c0,0.6,0.2,1.3,0.5,1.8C16.3,4.1,12.5,6,9.5,8.9c-3.5,3.4-5.6,8-5.9,12.8H2c-1.1,0-2,0.9-2,2v0.8
	c0,1.1,0.9,2,2,2h7.3c-0.4,0.2-0.7,0.5-1,0.8l0,0c0,0,0,0-0.1,0.1L5,31.4c-0.4-0.3-0.9-0.4-1.4-0.3c-0.5,0.1-0.9,0.4-1.2,0.8
	l-1.3,1.9c-0.6,0.9-0.4,2,0.5,2.6l8.7,5.9c0.3,0.2,0.7,0.3,1,0.3c0.1,0,0.2,0,0.4,0c0.5-0.1,0.9-0.4,1.2-0.8l1.3-1.9
	c0.6-0.9,0.4-2-0.5-2.6l0,0c0.6-0.7,1.4-1.2,2.3-1.4c1.8-0.4,4-0.2,5.5,0.1c1.8,0.3,3.7,0.2,5.5-0.3l2.5-0.7
	c1.7-0.5,3.2-1.2,4.6-2.3c0,0,0,0,0,0l4.3-3.8c0.7-0.6,0.9-1.5,0.6-2.3h5.5c1.1,0,2-0.9,2-2v-0.8C46.4,22.7,45.5,21.8,44.4,21.8z
	 M23.2,1.4c1.1,0,1.8,0.3,2,0.4c0,0.6-0.3,1.2-0.9,1.6c-0.1,0-0.3,0-0.4,0c0,0-0.1,0-0.1,0c-0.2,0-0.4,0-0.6,0c-0.1,0-0.3,0-0.4,0
	c-0.1,0-0.1,0-0.2,0c-0.1,0-0.2,0-0.2,0c-0.1,0-0.2,0-0.3,0c-0.5-0.4-0.9-0.9-0.9-1.6C21.4,1.6,22.1,1.4,23.2,1.4z M28.1,26.9
	c-0.1-0.1-0.1-0.2-0.2-0.3h6.5l-2.8,1.9l-4,1.2l-0.1,0C28.2,28.9,28.5,27.8,28.1,26.9z M20.7,26.6l-1,0.2L19,26.6H20.7z M13,39.1
	L11.8,41c-0.1,0.1-0.2,0.2-0.3,0.2c-0.1,0-0.3,0-0.4-0.1l-8.7-5.9c-0.2-0.2-0.3-0.5-0.1-0.7l1.3-1.9c0.1-0.1,0.2-0.2,0.3-0.2
	c0,0,0.1,0,0.1,0c0.1,0,0.2,0,0.3,0.1l0.5,0.3c0,0,0,0,0,0l8.2,5.6C13.1,38.6,13.2,38.9,13,39.1z M37.5,27.8
	C37.4,27.8,37.4,27.8,37.5,27.8l-4.3,3.8c-1.2,0.9-2.6,1.6-4.1,2l-2.5,0.7c-1.6,0.4-3.3,0.5-4.9,0.3c-1.6-0.3-3.9-0.6-6-0.1
	c-1.2,0.3-2.3,1-3.1,1.9l-6.4-4.4l3.1-3.8c1.2-1.1,2.7-1.8,4.1-1.8h0c0.4,0,0.9,0.1,1.4,0.3c0.1,0,0.2,0.1,0.3,0.1l4.5,1.2
	c0.1,0,0.2,0,0.3,0l5.9-1.2c0.3-0.1,0.5,0,0.8,0.1c0.1,0.1,0.3,0.2,0.3,0.4c0.2,0.5,0,1-0.4,1.2l-2,1.1c-0.3,0.1-0.4,0.5-0.3,0.8
	c0.1,0.3,0.4,0.5,0.7,0.5l3-0.1c0.1,0,0.1,0,0.2,0l4.2-1.2c0.1,0,0.1,0,0.2-0.1l4.2-2.8c0.4-0.2,0.8-0.4,1.1,0
	C37.7,27.1,37.8,27.6,37.5,27.8z"/>
</svg>
