<svg version="1.1" width="40" height="44" xmlns="http://www.w3.org/2000/svg" xmlns:xlink="http://www.w3.org/1999/xlink" x="0px" y="0px"
	 viewBox="0 0 39.1 44" style="enable-background:new 0 0 39.1 44;" xml:space="preserve">
<g>
	<circle cx="11" cy="27.1" r="1.6"/>
	<circle cx="28.1" cy="27.1" r="1.6"/>
	<path d="M11,22.2c-0.8,0-1.6,0.3-2.2,0.9c-0.3,0.3-0.3,0.8,0,1.2s0.8,0.3,1.2,0c0.3-0.3,0.7-0.4,1.1-0.4s0.8,0.2,1.1,0.4
		c0.2,0.2,0.4,0.2,0.6,0.2c0.2,0,0.4-0.1,0.6-0.2c0.3-0.3,0.3-0.8,0-1.2C12.6,22.5,11.8,22.2,11,22.2z"/>
	<path d="M25.9,23.1c-0.3,0.3-0.3,0.8,0,1.2c0.3,0.3,0.8,0.3,1.2,0c0.6-0.6,1.6-0.6,2.1,0c0.2,0.2,0.4,0.2,0.6,0.2
		c0.2,0,0.4-0.1,0.6-0.2c0.3-0.3,0.3-0.8,0-1.2C29.1,21.9,27.1,21.9,25.9,23.1z"/>
	<path d="M21.2,33.7c-0.4,0.4-1,0.7-1.6,0.7c-0.6,0-1.2-0.2-1.6-0.7c-0.3-0.3-0.8-0.3-1.2,0c-0.3,0.3-0.3,0.8,0,1.2
		c0.7,0.7,1.7,1.1,2.8,1.1c1,0,2-0.4,2.8-1.1c0.3-0.3,0.3-0.8,0-1.2C22,33.4,21.5,33.4,21.2,33.7z"/>
	<path d="M39.1,26.3c0-2.3-1.6-4.1-3.8-4.5V7.9c0-1.8-0.9-3.5-2.4-4.5c-1.4-0.9-3.2-1.1-4.7-0.6L23,1.1c-4-1.4-8.2-1.5-12.2-0.4
		C5.7,2.2,2.7,5.2,2.2,9.5c-0.4,0.5-0.7,1.1-0.9,1.8l-0.4,1.2c-0.2,0.6,0,1.3,0.6,1.7C2,14.5,2.7,14.4,3.2,14
		c0.2-0.2,0.3-0.3,0.5-0.4v8.3C1.6,22.2,0,24.1,0,26.3c0,2.3,1.8,4.3,4,4.6c0.6,3.1,2.1,6,4.4,8.4c3,3,7,4.7,11.2,4.7c0,0,0,0,0,0
		c4.2,0,8.2-1.6,11.2-4.6c2.3-2.3,3.8-5.3,4.4-8.4C37.4,30.6,39.1,28.7,39.1,26.3z M32,4.9c1.1,0.7,1.7,1.8,1.7,3.1v10.8
		c-2.6-0.4-4.5-2.6-4.5-5.3l-0.1-9.1C30.1,4.1,31.1,4.3,32,4.9z M2.7,12.3l0.2-0.5C3.3,10.6,4.2,9.5,5.4,9C6.6,8.5,8,8.5,9.2,9.1
		c2.5,1.2,5.5,0.5,7.4-1.5l0.2-0.2c0.3-0.3,0.3-0.9-0.1-1.2c-0.3-0.3-0.9-0.3-1.2,0.1l-0.2,0.2C14,8,11.7,8.4,9.9,7.6
		C8.3,6.8,6.4,6.8,4.8,7.5C4.6,7.6,4.5,7.6,4.3,7.7c1-2.6,3.3-4.4,7-5.4c3.6-1,7.5-0.9,11.2,0.4l4.9,1.7l0.1,4.3
		c-2.2,3-5.4,5-9.1,5.7c-3.7,0.7-7.6,0-10.7-2.1C6.1,11.2,4.2,11.3,2.7,12.3z M1.7,26.3c0-1.3,0.9-2.5,2.1-2.8V28c0,0.4,0,0.8,0,1.2
		C2.6,28.8,1.7,27.7,1.7,26.3z M29.5,38.2c-2.7,2.7-6.2,4.1-10,4.1c0,0,0,0,0,0c-3.8,0-7.3-1.5-10-4.2C6.9,35.4,5.4,31.8,5.4,28
		V13.2c0.5,0,0.9,0.2,1.4,0.5c3.5,2.3,7.8,3.2,12,2.4c3.4-0.6,6.4-2.3,8.7-4.8v2.2c0,3.6,2.7,6.6,6.2,7v7.7
		C33.7,31.9,32.2,35.5,29.5,38.2z M35.3,29.2c0-0.3,0-0.7,0-1v-4.6c1.2,0.4,2.1,1.5,2.1,2.8C37.5,27.7,36.5,28.8,35.3,29.2z"/>
</g>
</svg>
