<svg version="1.1" width="47" height="50" xmlns="http://www.w3.org/2000/svg" xmlns:xlink="http://www.w3.org/1999/xlink" x="0px" y="0px"
	 viewBox="0 0 61.6 65.5" style="enable-background:new 0 0 61.6 65.5;" xml:space="preserve">
<g>
	<g>
		<path fill="#ffffff" d="M12.9,46.2c-0.2,0-0.5-0.1-0.6-0.2c-8-6.6-8.5-15.6-5.4-21.6l5.1-10l8.1,1.8c0.5,0.1,0.9,0.7,0.8,1.2
			c-0.1,0.5-0.7,0.9-1.2,0.8l-6.5-1.5l-4.4,8.6c-2.7,5.3-2.2,13.2,4.9,19.1c0.4,0.4,0.5,1,0.1,1.4C13.4,46.1,13.1,46.2,12.9,46.2z"
			/>
	</g>
	<g>
		<path fill="#ffffff" d="M12.9,46.2c-0.4,0-0.9-0.3-1-0.8c-0.1-0.5,0.2-1.1,0.7-1.2c9-2.2,12.9-9.2,12.8-15.1l-0.2-9.6l-5.7-1.3
			c-0.5-0.1-0.9-0.7-0.8-1.2c0.1-0.5,0.7-0.9,1.2-0.8l7.2,1.7l0.2,11.2c0.1,6.7-4.2,14.6-14.3,17.1C13,46.2,12.9,46.2,12.9,46.2z"/>
	</g>
	<g>
		<path fill="#ffffff" d="M6.8,28.2c-0.4,0-0.8-0.3-1-0.7c-0.1-0.5,0.2-1.1,0.7-1.2c4.5-1.2,7.1-0.9,9.6-0.6c2.6,0.3,5.1,0.7,9.9-1
			c0.5-0.2,1.1,0.1,1.3,0.6c0.2,0.5-0.1,1.1-0.6,1.3c-5.2,1.9-8.1,1.5-10.8,1.1c-2.4-0.3-4.7-0.6-8.8,0.5
			C6.9,28.1,6.9,28.2,6.8,28.2z"/>
	</g>
	<g>
		<path fill="#ffffff" d="M16.7,65.5c-0.1,0-0.1,0-0.2,0L0.8,61.8C0.3,61.7,0,61.4,0,60.9c0-0.4,0.2-0.8,0.6-1l9.1-3.6c0.4-0.2,0.8-0.1,1.1,0.3
			l6.6,7.2c0.3,0.3,0.3,0.8,0.1,1.2C17.4,65.3,17.1,65.5,16.7,65.5z M4.3,60.6l9.5,2.2l-4-4.4L4.3,60.6z"/>
	</g>
	<g>
		<path fill="#ffffff" d="M10.1,58.2c-0.1,0-0.1,0-0.2,0C9.3,58.1,9,57.6,9.1,57l2.8-12c0.1-0.5,0.7-0.9,1.2-0.8c0.5,0.1,0.9,0.7,0.8,1.2l-2.8,12
			C11,57.9,10.6,58.2,10.1,58.2z"/>
	</g>
</g>
<g>
	<g>
		<path fill="#ffffff" d="M48.7,46.2c-0.3,0-0.6-0.1-0.8-0.4c-0.4-0.4-0.3-1.1,0.1-1.4c7.1-5.9,7.6-13.9,4.9-19.1l-4.4-8.6l-6.5,1.5
			c-0.5,0.1-1.1-0.2-1.2-0.8c-0.1-0.5,0.2-1.1,0.8-1.2l8.1-1.8l5.1,10c3,6,2.5,15-5.4,21.6C49.2,46.2,49,46.2,48.7,46.2z"/>
	</g>
	<g>
		<path fill="#ffffff" d="M48.7,46.2c-0.1,0-0.2,0-0.2,0c-10.1-2.5-14.4-10.4-14.3-17.1L34.4,18l7.2-1.7c0.5-0.1,1.1,0.2,1.2,0.8s-0.2,1.1-0.8,1.2
			l-5.7,1.3l-0.2,9.6C36.1,35.1,40,42,49,44.3c0.5,0.1,0.9,0.7,0.7,1.2C49.6,45.9,49.2,46.2,48.7,46.2z"/>
	</g>
	<g>
		<path fill="#ffffff" d="M54.8,28.2c-0.1,0-0.2,0-0.3,0c-4.1-1.1-6.4-0.8-8.8-0.5c-2.8,0.4-5.6,0.7-10.8-1.1c-0.5-0.2-0.8-0.8-0.6-1.3
			c0.2-0.5,0.8-0.8,1.3-0.6c4.8,1.7,7.3,1.4,9.9,1c2.5-0.3,5.1-0.7,9.6,0.6c0.5,0.1,0.8,0.7,0.7,1.2C55.7,27.9,55.3,28.2,54.8,28.2z
			"/>
	</g>
	<g>
		<path fill="#ffffff" d="M44.9,65.5c-0.4,0-0.7-0.2-0.9-0.5c-0.2-0.4-0.2-0.9,0.1-1.2l6.6-7.2c0.3-0.3,0.7-0.4,1.1-0.3l9.1,3.6
			c0.4,0.2,0.7,0.6,0.6,1c0,0.4-0.3,0.8-0.8,0.9l-15.7,3.6C45,65.5,45,65.5,44.9,65.5z M51.8,58.4l-4,4.4l9.5-2.2L51.8,58.4z"/>
	</g>
	<g>
		<path fill="#ffffff" d="M51.5,58.2c-0.5,0-0.9-0.3-1-0.8l-2.8-12c-0.1-0.5,0.2-1.1,0.8-1.2c0.5-0.1,1.1,0.2,1.2,0.8l2.8,12
			c0.1,0.5-0.2,1.1-0.8,1.2C51.6,58.2,51.6,58.2,51.5,58.2z"/>
	</g>
</g>
<g>
	<path fill="#ffffff" d="M25.7,9.4c-0.3,0-0.7-0.2-0.9-0.5l-2.7-4.5C21.9,3.9,22,3.3,22.5,3c0.5-0.3,1.1-0.1,1.4,0.3l2.7,4.5
		c0.3,0.5,0.1,1.1-0.3,1.4C26.1,9.4,25.9,9.4,25.7,9.4z"/>
</g>
<g>
	<path fill="#ffffff" d="M35.8,9.4c-0.2,0-0.4,0-0.5-0.1c-0.5-0.3-0.6-0.9-0.3-1.4l2.7-4.5C37.9,2.9,38.5,2.7,39,3c0.5,0.3,0.6,0.9,0.3,1.4
		l-2.7,4.5C36.5,9.2,36.1,9.4,35.8,9.4z"/>
</g>
<g>
	<path fill="#ffffff" d="M30.8,7.3c-0.6,0-1-0.4-1-1V1c0-0.6,0.4-1,1-1s1,0.4,1,1v5.3C31.8,6.8,31.3,7.3,30.8,7.3z"/>
</g>
</svg>
