<svg version="1.1" width="44" height="50" xmlns="http://www.w3.org/2000/svg" xmlns:xlink="http://www.w3.org/1999/xlink" x="0px" y="0px"
	 viewBox="0 0 43.8 50" style="enable-background:new 0 0 43.8 50;" xml:space="preserve">
<g>
	<g>
		<g>
			<path fill="#ffffff" d="M42.1,39.3c-0.5-3.2-2.8-5.9-5.9-7l-6.9-2.3v-1h-1.6v1.5l-1.2,4.8l-3.3-3.9h-2.4l-3.3,3.9l-1.2-4.8V29h-1.6v1l-6.9,2.3
				c-3.1,1-5.4,3.7-5.9,7L0,50h21.9h21.9L42.1,39.3z M31.6,32.6l2.4,0.8v8.6h-2.4V32.6z M13.9,32l1-0.3l1.8,7.1l4.8-5.8h0.9l4.8,5.8
				l1.8-7.1l1,0.3v9.9H13.9V32z M9.8,33.4l2.4-0.8v9.4H9.8L9.8,33.4z M8.2,41.9l-0.7,6.5H1.9l1.5-8.8c0.4-2.7,2.3-4.8,4.8-5.7V41.9z
				 M21.9,48.4H9.1l0.5-4.8h24.5l0.5,4.8H21.9z M36.4,48.4l-0.7-6.5v-8c2.5,0.9,4.4,3,4.8,5.7l1.5,8.8H36.4z"/>
			<path fill="#ffffff" d="M6.4,18.1l0.3-1.6c-4.7-1-5-2-5-2c0.1-1.1,7.4-3.2,20.2-3.2s20,2.1,20.2,3.2c0,0-0.3,1-5,2l0.3,1.6
				c4.3-0.9,6.3-2,6.3-3.5c0-2.2-4.5-3.4-9.8-4.1C33,4.5,28,0,21.9,0S10.8,4.5,10,10.4c-5.3,0.7-9.8,2-9.8,4.1
				C0.1,16,2.1,17.2,6.4,18.1z M21.9,1.6c5.1,0,9.4,3.7,10.3,8.6c-3.6-0.4-7.4-0.5-10.3-0.5s-6.7,0.1-10.3,0.5
				C12.5,5.3,16.8,1.6,21.9,1.6z"/>
			<path fill="#ffffff" d="M31.7,13.4c-3-0.3-6.3-0.5-9.8-0.5s-6.8,0.2-9.8,0.5l-0.7,0.1v0.3c-1.8,0.4-3.2,2-3.2,4c0,2.1,1.6,3.8,3.6,4
				c0.4,1.4,1.2,2.7,2.2,3.8l3.1,3.1c0.8,0.8,1.8,1.2,2.9,1.2h3.8c1.1,0,2.1-0.4,2.9-1.2l3.1-3.1c1.1-1.1,1.8-2.4,2.2-3.8
				c2-0.2,3.6-1.9,3.6-4c0-1.9-1.4-3.6-3.2-4v-0.3L31.7,13.4z M9.8,17.7c0-1,0.7-1.9,1.6-2.3v3.8c0,0.3,0,0.5,0,0.8
				C10.5,19.7,9.8,18.8,9.8,17.7z M30.8,19.2c0,1.9-0.8,3.8-2.1,5.1l-3.1,3.1c-0.5,0.5-1.1,0.7-1.7,0.7H20c-0.6,0-1.3-0.3-1.7-0.7
				l-3.1-3.1C13.8,23,13,21.2,13,19.2v-4.3c2.8-0.3,5.7-0.4,8.9-0.4s6.1,0.1,8.9,0.4V19.2z M34,17.7c0,1.1-0.7,2-1.7,2.3
				c0-0.3,0-0.5,0-0.8v-3.8C33.3,15.8,34,16.7,34,17.7z"/>
			<path fill="#ffffff" d="M17.1,22.6V25h9.7v-2.4c0-1.3-1.1-2.4-2.4-2.4h-4.8C18.2,20.2,17.1,21.2,17.1,22.6z M25.1,22.6v0.8h-6.5v-0.8
				c0-0.4,0.4-0.8,0.8-0.8h4.8C24.8,21.8,25.1,22.1,25.1,22.6z"/>
			<rect fill="#ffffff" x="21.1" y="35.5" width="1.6" height="1.6"/>
			<rect fill="#ffffff" x="21.1" y="38.7" width="1.6" height="1.6"/>
		</g>
	</g>
</g>
</svg>
