<svg version="1.1" width="11" height="25" xmlns="http://www.w3.org/2000/svg" xmlns:xlink="http://www.w3.org/1999/xlink" x="0px" y="0px"
	 viewBox="0 0 7.4 17.1" style="enable-background:new 0 0 7.4 17.1;" xml:space="preserve">
<style type="text/css">
	.address-path{fill:#B53232;}
</style>
<g>
	<path class="address-path" d="M4.3,17.1c-0.1,0-0.2,0-0.3-0.1c-0.2-0.1-4-3.1-4-8.4s3.9-8.3,4-8.4c0.2-0.3,0.5-0.2,0.7,0
		c0,0,1.3,1.4,2.5,2.7c0.2,0.1,0.2,0.4,0,0.6C6.7,4,5.7,5.3,5.5,5.8C5.4,6,5.3,6.1,5,6.1H3.4C3.3,6.5,3.1,7.3,3.1,8.5s0.2,2,0.4,2.4
		h1.6c0.2,0,0.4,0.1,0.5,0.3c0.2,0.5,1.2,1.8,1.7,2.3c0.2,0.2,0.2,0.5,0,0.7c-1.2,1.3-2.5,2.7-2.5,2.7C4.6,17,4.4,17.1,4.3,17.1z
		 M4.3,1.2C3.4,2,1,4.6,1,8.5s2.4,6.5,3.3,7.3c0.4-0.4,1.1-1.2,1.9-2c-0.5-0.5-1.1-1.4-1.4-2H3.1c-0.2,0-0.4-0.1-0.4-0.3
		c0,0-0.6-1.1-0.6-3.1s0.6-3.1,0.6-3.1C2.8,5.1,3,5,3.1,5h1.6c0.3-0.6,1-1.4,1.4-2C5.4,2.4,4.7,1.6,4.3,1.2z"/>
</g>
</svg>
