<svg version="1.1" xmlns="http://www.w3.org/2000/svg" xmlns:xlink="http://www.w3.org/1999/xlink" x="0px" y="0px"
	 viewBox="0 0 10.5 13.5" style="enable-background:new 0 0 10.5 13.5;" xml:space="preserve">
<style type="text/css">
	.address-path{fill:#B53232;}
</style>
<g>
	<g>
		<g>
			<path class="address-path" d="M5.2,13.5c-0.1,0-0.2,0-0.3-0.1C2.2,11.7,0,8,0,5.2C0,2.4,2.4,0,5.2,0s5.2,2.4,5.2,5.2c0,2.8-2.6,6.4-5,8.2
				C5.5,13.5,5.4,13.5,5.2,13.5z M5.2,1C2.9,1,1,2.9,1,5.2c0,2.3,1.9,5.5,4.2,7.1c2.1-1.6,4.3-4.8,4.3-7.1C9.5,2.9,7.6,1,5.2,1z"/>
		</g>
	</g>
	<g>
		<path class="address-path" d="M5.2,7.6c-1.3,0-2.4-1.1-2.4-2.4c0-1.3,1.1-2.4,2.4-2.4s2.4,1.1,2.4,2.4C7.6,6.5,6.6,7.6,5.2,7.6z M5.2,3.8
			c-0.8,0-1.4,0.6-1.4,1.4s0.6,1.4,1.4,1.4S6.6,6,6.6,5.2S6,3.8,5.2,3.8z"/>
	</g>
</g>
</svg>
