<svg version="1.1" xmlns="http://www.w3.org/2000/svg" xmlns:xlink="http://www.w3.org/1999/xlink" x="0px" y="0px"
	 viewBox="0 0 563 201.5" style="enable-background:new 0 0 563 201.5;" xml:space="preserve">
<style type="text/css">
	.footer-logo-path1{fill:#FFFFFF;}
	.footer-logo-path2{opacity:0.3;fill:#FFFFFF;}
</style>
<g>
	<path class="footer-logo-path1" d="M48,57.1c0-8.8-7.1-15.9-15.9-15.9H0v8h9v96H0v8h28v-8h-9v-45h13.1c8.8,0,15.9-7.1,15.9-15.9V57.1z M38,84.6
		c0,4.2-3.4,7.6-7.6,7.6H19v-43h11.4c4.2,0,7.6,3.4,7.6,7.6V84.6z"/>
	<path class="footer-logo-path1" d="M360.1,97.2H347v-45h9v-8h-28v8h9v96h-9v8h32.1c8.8,0,15.9-7.1,15.9-15.9v-27.2
		C376,104.3,368.9,97.2,360.1,97.2z M366,140.6c0,4.2-3.4,7.6-7.6,7.6H347v-43h11.4c4.2,0,7.6,3.4,7.6,7.6V140.6z"/>
	<path class="footer-logo-path1" d="M80,41.2H69l-16.5,104H45v8h25v-8h-8.4l5-32h13.7l4.3,32H77v8h25v-8h-7.4L80,41.2z M68,104.2l6-38l5.1,38H68z"
		/>
	<path class="footer-logo-path1" d="M229.5,41.2c-10.8,0-19.5,8.7-19.5,19.5v77c0,10.8,8.7,19.5,19.5,19.5s19.5-8.7,19.5-19.5v-77
		C249,49.9,240.3,41.2,229.5,41.2z M239,137.7c0,5.2-4.3,9.5-9.5,9.5s-9.5-4.3-9.5-9.5v-77c0-5.2,4.3-9.5,9.5-9.5s9.5,4.3,9.5,9.5
		V137.7z"/>
	<path class="footer-logo-path1" d="M278,51.2h8.7c-1.5,10.1-8.4,56.7-13.7,93c-1,6-8,8-8,0c0-9,0-15,0-15l-9,3c0,0,0,7,0,13c0,8,6,13.6,13,13
		c6.8-0.6,12-3,14-15c1.5-8.9,10.6-76.8,12.6-92h5.4v97h-8v7h27v-7h-8v-97h9v-7h-43V51.2z"/>
	<polygon class="footer-logo-path1" points="415,52.2 423,52.2 423,95.2 401,95.2 401,52.2 410,52.2 410,44.2 384,44.2 384,52.2 392,52.2
		392,148.2 384,148.2 384,156.2 410,156.2 410,148.2 401,148.2 401,103.2 423,103.2 423,148.2 415,148.2 415,156.2 441,156.2
		441,148.2 432,148.2 432,52.2 441,52.2 441,44.2 415,44.2 	"/>
	<polygon class="footer-logo-path1" points="477,52.2 485,52.2 485,67.3 463,115.1 463,52.2 472,52.2 472,44.2 446,44.2 446,52.2 454,52.2
		454,148.2 446,148.2 446,156.2 472,156.2 472,148.2 463,148.2 463,132.5 485,84.7 485,148.2 477,148.2 477,156.2 503,156.2
		503,148.2 494,148.2 494,52.2 503,52.2 503,44.2 477,44.2 	"/>
	<path class="footer-logo-path1" d="M563,68.2v-12c0-6.6-5.4-12-12-12s-12,5.4-12,12v34.3c0,3.1-2.5,5.7-5.7,5.7H525v-44h9v-8h-26v8h8v96h-8v8h26
		v-8h-9v-44h7.3c5.9,0,10.8,4.8,10.8,10.8v41.3h19v-8h-9v-32.4c0-7.8-5.4-14.3-12.6-16.1c3.8-1.3,6.6-4.9,6.6-9.1V55.2
		c0-2.2,1.8-4,4-4s4,1.8,4,4v13H563z"/>
	<path class="footer-logo-path1" d="M140,46.7c-3.9-3.7-8.9-5.5-14-5.5c-11.3,0-19,8.7-19,19.5v38.5v8v30.5c0,10.8,9.2,19.5,20.5,19.5
		s20.5-8.7,20.5-19.5v-24.5h-10.5v24.5c0,5.2-4.5,9.5-10,9.5s-10-4.3-10-9.5v-30.5v-8V60.7c0-5.2,4.5-9.5,10-9.5s10,4.3,10,9.5v26.5
		H148v-16v-3v-26h-8V46.7z"/>
	<path class="footer-logo-path1" d="M192,46.7c-3.9-3.7-8.9-5.5-14-5.5c-11.3,0-19,8.7-19,19.5v38.5v8v30.5c0,10.8,9.2,19.5,20.5,19.5
		s20.5-8.7,20.5-19.5v-24.5h-10.5v24.5c0,5.2-4.5,9.5-10,9.5s-10-4.3-10-9.5v-30.5v-8V60.7c0-5.2,4.5-9.5,10-9.5s10,4.3,10,9.5v26.5
		H200v-16v-3v-26h-8V46.7z"/>
</g>
<polygon class="footer-logo-path2" points="281.5,185.5 7.5,190.5 7.5,192.5 281.5,201.5 555.5,192.5 555.5,190.5 "/>
<polygon class="footer-logo-path2" points="281.5,-0.1 7.5,4.9 7.5,6.9 281.5,15.9 555.5,6.9 555.5,4.9 "/>
</svg>
