<svg xmlns="http://www.w3.org/2000/svg" width="40" height="25" viewBox="0 0 40 25">
<defs>
    <style>
      .table-icon {
        fill: #f7d1aa;
        fill-rule: evenodd;
      }
    </style>
  </defs>
  <path class="table-icon" d="M1381,61v11.9h1.18a6.523,6.523,0,0,0,3.53-1.093V84.806a1.178,1.178,0,0,0,1.17,1.19h0a1.186,1.186,0,0,0,1.18-1.19V71.859a5.819,5.819,0,0,0,3.53,1.046,6.077,6.077,0,0,1,9.41,0,6.077,6.077,0,0,1,9.41,0,5.821,5.821,0,0,0,3.53-1.045V84.806a1.186,1.186,0,0,0,1.18,1.19h0a1.178,1.178,0,0,0,1.17-1.19V71.86a5.865,5.865,0,0,0,3.53,1.045H1421V61h-40Zm37.65,9.372a3.471,3.471,0,0,1-2.36-3.422h-2.35a3.53,3.53,0,1,1-7.06,0h-2.35a3.53,3.53,0,1,1-7.06,0h-2.35a3.53,3.53,0,1,1-7.06,0h-2.35a3.192,3.192,0,0,1-2.36,3.387V63.385h35.3v6.992Z" transform="translate(-1381 -61)"/>
</svg>
