<svg xmlns="http://www.w3.org/2000/svg" width="19.91" height="20" viewBox="0 0 19.91 20">
<defs>
    <style>
      .zoom-svg {
        fill: #fff;
        fill-rule: evenodd;
      }
    </style>
  </defs>
  <path class="zoom-svg" d="M1114.59,604.293l-3.67-3.682a8.916,8.916,0,1,0-1.4,1.414l3.66,3.682A1,1,0,0,0,1114.59,604.293ZM1096.96,595a6.97,6.97,0,1,1,11.91,4.93,0.226,0.226,0,0,1-.02.013c0,0.006-.01.014-0.01,0.019A6.959,6.959,0,0,1,1096.96,595Zm9.96-1h-1.99v-2a1,1,0,0,0-2,0v2h-1.99a1,1,0,0,0,0,2h1.99v2a1,1,0,0,0,2,0v-2h1.99A1,1,0,0,0,1106.92,594Z" transform="translate(-1094.97 -586)"/>
</svg>
